<?xml version="1.0" encoding="UTF-8"?>
<svg xmlns="http://www.w3.org/2000/svg" xmlns:xlink="http://www.w3.org/1999/xlink" width="48" height="48" viewBox="0 0 24 24" version="1.1">
    <title>Public/ic_public_picture_filled</title>
    <defs>
        <path d="M16.8722296,2 C18.6552671,2 19.3018396,2.18565122 19.9536914,2.53426541 C20.6055433,2.88287959 21.1171204,3.39445674 21.4657346,4.04630859 C21.8143488,4.69816044 22,5.34473292 22,7.1277704 L22,16.8722296 C22,18.6552671 21.8143488,19.3018396 21.4657346,19.9536914 C21.1171204,20.6055433 20.6055433,21.1171204 19.9536914,21.4657346 C19.3018396,21.8143488 18.6552671,22 16.8722296,22 L7.1277704,22 C5.34473292,22 4.69816044,21.8143488 4.04630859,21.4657346 C3.39445674,21.1171204 2.88287959,20.6055433 2.53426541,19.9536914 C2.18565122,19.3018396 2,18.6552671 2,16.8722296 L2,7.1277704 C2,5.34473292 2.18565122,4.69816044 2.53426541,4.04630859 C2.88287959,3.39445674 3.39445674,2.88287959 4.04630859,2.53426541 C4.69816044,2.18565122 5.34473292,2 7.1277704,2 L16.8722296,2 Z M8.25,7.25 C7.28350169,7.25 6.5,8.03350169 6.5,9 C6.5,9.96649831 7.28350169,10.75 8.25,10.75 C9.21649831,10.75 10,9.96649831 10,9 C10,8.03350169 9.21649831,7.25 8.25,7.25 Z M17.5863647,11.830408 C17.9278857,11.9339218 18.2139555,12.0894067 18.8006866,12.6674148 L20.3533478,14.2198191 C20.4471216,14.3135774 20.4998104,14.4407465 20.4998237,14.5733517 L20.5,16.3336866 L20.5,16.3336866 C20.5,17.7824045 20.3491584,18.3077446 20.0659094,18.8373743 C19.7826603,19.3670039 19.3670039,19.7826603 18.8373743,20.0659094 L18.757846,20.1074014 C18.2529022,20.3638654 17.7099686,20.5 16.3336866,20.5 L7.66631345,20.5 L7.45581513,20.498871 C6.16505076,20.4845848 5.66577388,20.3349959 5.16262573,20.0659094 C4.6329961,19.7826603 4.21733967,19.3670039 3.93409064,18.8373743 C3.89702344,18.7680646 3.85172101,18.6706271 3.79818336,18.5450618 C3.75805942,18.4511841 3.77912161,18.3423608 3.85131193,18.27017 L6.68705939,15.4344051 L6.68705939,15.4344051 C7.31745834,14.8040061 7.61169385,14.6410459 7.96541201,14.5338352 C8.31913016,14.4266244 8.68086984,14.4266244 9.03458799,14.5338352 L9.1070521,14.5569472 L9.17859739,14.5824604 C9.46397916,14.6903961 9.74599755,14.8754064 10.2489099,15.370842 L10.3632243,15.4851003 C10.9493275,16.070348 11.898856,16.0702419 12.4848285,15.4848634 L15.2388361,12.730978 C15.869235,12.100579 16.1634705,11.9376187 16.5171887,11.830408 C16.8709069,11.7231973 17.2326465,11.7231973 17.5863647,11.830408 Z" id="___path-1"/>
    </defs>
    <g id="___Public/ic_public_picture_filled" stroke="none" stroke-width="1" fill="none" fill-rule="evenodd">
        <mask id="___mask-2" fill="white">
            <use xlink:href="#___path-1"/>
        </mask>
        <use id="___蒙版" fill="#6D7278" xlink:href="#___path-1"/>
    </g>
</svg>